<svg id="main_logo" xmlns="http://www.w3.org/2000/svg" width="186.606" height="222.312" viewBox="0 0 186.606 222.312">
  <g id="Grupo_624" data-name="Grupo 624" transform="translate(-1815.46 -616.159)" style="mix-blend-mode: screen;isolation: isolate">
    <g id="Grupo_622" data-name="Grupo 622" transform="translate(1815.46 807.303)">
      <g id="Grupo_621" data-name="Grupo 621">
        <path id="Caminho_1333" data-name="Caminho 1333" d="M1825.795,907.423l-9.683-14.567h3.866l7.772,12,7.771-12h3.825l-9.644,14.608,10.377,15.5h-3.867l-8.584-13.062-8.423,13.062h-3.744Z" transform="translate(-1815.46 -892.327)" fill="#fff"/>
        <path id="Caminho_1334" data-name="Caminho 1334" d="M1892.062,892.856c4.232,0,6.226.488,8.1,1.912a9.225,9.225,0,0,1,3.215,7.162,9.429,9.429,0,0,1-3.092,7.161c-1.995,1.547-4.029,2.034-7.936,2.034H1887.5v11.841h-3.377V892.856Zm-4.557,15.3h4.8c2.524,0,4.07-.285,5.575-1.261a5.912,5.912,0,0,0,2.238-4.883,5.851,5.851,0,0,0-2.279-4.924c-1.505-.977-3.052-1.262-5.615-1.262h-4.72Z" transform="translate(-1836.56 -892.327)" fill="#fff"/>
        <path id="Caminho_1335" data-name="Caminho 1335" d="M1922.9,892.856h3.377V920h11.474v2.971H1922.9Z" transform="translate(-1848.473 -892.327)" fill="#fff"/>
        <path id="Caminho_1336" data-name="Caminho 1336" d="M1949.622,907.758a15.484,15.484,0,1,1,0,.041Zm3.377-.082a12.6,12.6,0,1,0,0-.04Z" transform="translate(-1856.686 -892.092)" fill="#fff"/>
        <path id="Caminho_1337" data-name="Caminho 1337" d="M2007.13,892.856h7.854c4.719,0,6.917.569,8.464,1.546a9.533,9.533,0,0,1,4.109,8.1,9.705,9.705,0,0,1-1.79,5.9c-1.791,2.441-3.947,3.01-6.714,3.3l7.486,11.271h-3.661l-8.5-13.143h.975c2.116,0,5.046-.041,6.673-1.546a7.343,7.343,0,0,0,2.279-5.534,7.079,7.079,0,0,0-2.971-5.819c-1.505-.976-3.378-1.1-6.1-1.1h-4.72v27.141h-3.377Z" transform="translate(-1874.357 -892.327)" fill="#fff"/>
        <path id="Caminho_1338" data-name="Caminho 1338" d="M2047.641,922.967h-3.621l12.573-30.111h3.255l12.451,30.111h-3.663l-3.5-8.464H2051.1ZM2058.1,896.64l-5.981,15.1h12Z" transform="translate(-1885.692 -892.327)" fill="#fff"/>
      </g>
      <circle id="Elipse_32" data-name="Elipse 32" cx="2.164" cy="2.164" r="2.164" transform="translate(32.906 13.419)" fill="#fff"/>
    </g>
    <g id="Grupo_623" data-name="Grupo 623" transform="translate(1836.727 616.159)">
      <path id="Caminho_1339" data-name="Caminho 1339" d="M1918.2,616.16l-72.036,159.854,90.185-119.644Z" transform="translate(-1846.161 -616.16)" fill="#b5b5b5"/>
      <path id="Caminho_1340" data-name="Caminho 1340" d="M1873.515,794.539l-27.353,36.287h144.073Z" transform="translate(-1846.161 -670.972)" fill="#f04f4e"/>
      <path id="Caminho_1341" data-name="Caminho 1341" d="M1965.609,674.222l-24.191,32.093,78.087,87.54Z" transform="translate(-1875.432 -634.001)" fill="#eaeaea"/>
      <path id="Caminho_1342" data-name="Caminho 1342" d="M2031.528,821.57l-50.982-57.153,8.7,44.008Z" transform="translate(-1887.455 -661.716)" fill="#b2b2b2"/>
      <path id="Caminho_1343" data-name="Caminho 1343" d="M1873.515,794.539l-27.353,36.287h144.073Z" transform="translate(-1846.161 -670.972)" fill="#eaeaea"/>
      <path id="Caminho_1344" data-name="Caminho 1344" d="M1885.648,780.227l19,5.907,5.32-38.169Z" transform="translate(-1858.295 -656.661)" fill="#7c7c7c"/>
    </g>
  </g>
</svg>
